# xmcd
#
# Track frame offsets: 
#        150
#        25419
#        50574
#        75029
#        92515
#        121511
#        147681
#        166762
#        184624
#
# Disc length: 2790 seconds
#
# Revision: 0
# Processed by: cddbd v1.5.2PL0 Copyright (c) Steve Scherf et al.
# Submitted via: ExactAudioCopy v1.0b4
#
DISCID=630ae409
DTITLE=Jimmy 'Duck' Holmes - It Is What It Is
DYEAR=2016
DGENRE=Blues
TTITLE0=Buddy Brown
TTITLE1=Pencil and Paper
TTITLE2=It Is What It Is
TTITLE3=Love Alone
TTITLE4=Evil
TTITLE5=It Had to Be the Devil
TTITLE6=So Glad
TTITLE7=Slow Down
TTITLE8=It Was What It Was
EXTD=
EXTT0=
EXTT1=
EXTT2=
EXTT3=
EXTT4=
EXTT5=
EXTT6=
EXTT7=
EXTT8=
PLAYORDER=
